<?xml version="1.0" encoding="UTF-8"?>
<svg id="Layer_1" xmlns="http://www.w3.org/2000/svg" version="1.1" viewBox="0 0 48 48">
  <!-- Generator: Adobe Illustrator 29.2.1, SVG Export Plug-In . SVG Version: 2.1.0 Build 116)  -->
  <defs>
    <style>
      .st0 {
        fill: #fff;
        fill-rule: evenodd;
      }
    </style>
  </defs>
  <path class="st0" d="M16.3,10.4c4.9-3.3,10.3-3.3,15.2,0,1.4.9,4,3.3,5.2,7.3.9,3,1.2,6.6.2,10.8-1.5,6.1-5.7,8.8-8.5,9.6-.6-.8-1.6-1.4-2.7-1.4-1.9,0-3.4,1.5-3.4,3.4s1.5,3.4,3.4,3.4,2.6-.8,3.1-2c3.7-.9,9-4,11.2-11.2,1-.3,2.2-.7,3.2-1.5,1.6-1.2,2.8-3,2.8-5.7s-1.1-4.6-2.7-5.8c-1.2-.9-2.5-1.4-3.7-1.7-1.6-4.3-4.4-6.9-6.2-8.1-6.1-4-13-4.1-19,0-3.1,2.1-4.9,5.1-5.9,8.2-1,.3-2.3.7-3.4,1.5-1.7,1.1-3.2,3-3.2,5.9s1.6,4.7,3.1,5.8c1.6,1.1,3.3,1.7,4.2,1.8.6,0,1.1-.1,1.5-.5.4-.4.5-1,.4-1.6-.8-3.1-.8-7.3.3-11,.8-3,2.3-5.6,4.8-7.3ZM41.2,26.1c-.1,0-.3.2-.4.3.3-2.4.2-4.7-.1-6.8.2.1.4.3.6.4.8.6,1.4,1.5,1.4,3.1s-.6,2.3-1.5,3ZM7,20.1c.2-.1.4-.2.5-.3-.3,2.3-.4,4.6-.2,6.7-.1,0-.2-.1-.3-.2-1-.7-1.7-1.7-1.7-3.1s.7-2.4,1.7-3.1Z"/>
</svg>