<svg width="48" height="48" viewBox="0 0 48 48" fill="none" xmlns="http://www.w3.org/2000/svg">
<path d="M28.6488 20.49L26.5338 18.375L18.7338 26.175C18.4488 26.46 18.2988 26.835 18.2988 27.24V27.735C18.2988 28.14 18.4638 28.515 18.7338 28.8L26.5338 36.6L28.6488 34.485L23.1438 28.98H43.4988V25.98H23.1738L28.6488 20.505V20.49Z" fill="white"/>
<path d="M43.5 12.975C43.5 12.795 43.47 12.63 43.395 12.465C43.395 12.435 43.365 12.42 43.35 12.39C43.305 12.3 43.26 12.21 43.2 12.12L37.815 5.085C37.53 4.71 37.095 4.5 36.63 4.5H11.55C11.085 4.5 10.635 4.725 10.35 5.1L5.01 12.12C4.95 12.195 4.92 12.285 4.875 12.375C4.86 12.405 4.845 12.435 4.83 12.465C4.77 12.63 4.725 12.795 4.725 12.975C4.725 12.99 4.725 13.005 4.725 13.02L4.5 41.91C4.5 42.315 4.65 42.69 4.935 42.975C5.22 43.26 5.595 43.425 6 43.425H42C42.825 43.425 43.5 42.75 43.5 41.925V33.135H40.5V40.425H7.515L7.71 14.535H40.5V22.14H43.5V13.035C43.5 13.035 43.5 13.005 43.5 12.975ZM9.225 11.535L12.285 7.5H35.88L38.97 11.535H9.225Z" fill="white"/>
</svg>
