<svg width="48" height="48" viewBox="0 0 48 48" fill="none" xmlns="http://www.w3.org/2000/svg">
<g clip-path="url(#clip0_4018_22116)">
<path d="M13.5744 19.9567L9.7447 21.3506C8.85305 21.6751 8.39332 22.661 8.71785 23.5527L9.47529 25.6337C9.79982 26.5254 10.7857 26.9851 11.6774 26.6606L15.5071 25.2667C16.3987 24.9421 16.8584 23.9562 16.5339 23.0646L15.7765 20.9835C15.4519 20.0919 14.466 19.6322 13.5744 19.9567Z" fill="white"/>
<path fill-rule="evenodd" clip-rule="evenodd" d="M3.21651 22.4724C2.5257 20.5744 3.50431 18.4758 5.4023 17.7849L34.3013 7.26656C36.1993 6.57575 38.298 7.55436 38.9888 9.45235L43.2875 21.2631L7.51527 34.2831L3.21651 22.4724ZM8.53932 37.0967L7.13229 37.6088L6.10823 34.7953L7.51527 34.2831L8.53932 37.0967ZM8.53932 37.0967L44.3116 24.0767L44.7835 25.3732C45.4743 27.2712 44.4957 29.3698 42.5977 30.0606L13.6987 40.579C11.8007 41.2698 9.70202 40.2912 9.01121 38.3932L8.53932 37.0967ZM4.37824 14.9714C0.926357 16.2278 -0.85345 20.0446 0.402934 23.4965L6.19764 39.4173C7.45402 42.8692 11.2708 44.649 14.7227 43.3926L43.6218 32.8742C47.0736 31.6178 48.8534 27.801 47.5971 24.3491L41.8024 8.42829C40.546 4.9764 36.7292 3.1966 33.2773 4.45298L4.37824 14.9714Z" fill="white"/>
<path d="M6.10823 34.7953L7.13229 37.6088L8.53932 37.0967L7.51527 34.2831L6.10823 34.7953Z" fill="white"/>
</g>
<defs>
<clipPath id="clip0_4018_22116">
<rect width="48" height="48" fill="white"/>
</clipPath>
</defs>
</svg>
